G04*
G04 #@! TF.GenerationSoftware,Altium Limited,Altium Designer,25.4.2 (15)*
G04*
G04 Layer_Color=16711935*
%FSLAX44Y44*%
%MOMM*%
G71*
G04*
G04 #@! TF.SameCoordinates,755EBFA8-2C22-4CE6-A8D5-5F4806BE5B60*
G04*
G04*
G04 #@! TF.FilePolarity,Negative*
G04*
G01*
G75*
%ADD20C,2.5500*%
%ADD21C,2.6250*%
%ADD22R,2.5500X2.5500*%
%ADD23R,2.6250X2.6250*%
%ADD24R,2.5500X2.5500*%
%ADD25C,1.5000*%
%ADD26C,1.5080*%
%ADD27C,4.0000*%
%ADD28C,1.2700*%
D20*
X860000Y1015000D02*
D03*
Y695000D02*
D03*
X690000Y995000D02*
D03*
X740000Y665000D02*
D03*
X810000Y805000D02*
D03*
Y855000D02*
D03*
D21*
X665000Y880200D02*
D03*
Y780200D02*
D03*
D22*
X860000Y965000D02*
D03*
Y645000D02*
D03*
D23*
X665000Y919800D02*
D03*
Y819800D02*
D03*
D24*
X690000Y665000D02*
D03*
X740000Y995000D02*
D03*
D25*
X910000Y885000D02*
D03*
Y775000D02*
D03*
D26*
Y1045000D02*
D03*
Y935000D02*
D03*
X770000Y1045000D02*
D03*
X660000D02*
D03*
X910000Y615000D02*
D03*
Y725000D02*
D03*
X660000Y615000D02*
D03*
X770000D02*
D03*
D27*
X815000Y1035000D02*
D03*
Y625000D02*
D03*
X615000Y1035000D02*
D03*
Y625000D02*
D03*
D28*
X760000Y780000D02*
D03*
X745000Y950000D02*
D03*
X710000Y820000D02*
D03*
X740000Y710000D02*
D03*
X731936Y918350D02*
D03*
M02*
