G04*
G04 #@! TF.GenerationSoftware,Altium Limited,Altium Designer,25.4.2 (15)*
G04*
G04 Layer_Color=8388736*
%FSLAX44Y44*%
%MOMM*%
G71*
G04*
G04 #@! TF.SameCoordinates,755EBFA8-2C22-4CE6-A8D5-5F4806BE5B60*
G04*
G04*
G04 #@! TF.FilePolarity,Negative*
G04*
G01*
G75*
%ADD14R,2.0500X1.1000*%
%ADD15R,1.4700X0.9700*%
G04:AMPARAMS|DCode=16|XSize=1mm|YSize=1mm|CornerRadius=0.25mm|HoleSize=0mm|Usage=FLASHONLY|Rotation=90.000|XOffset=0mm|YOffset=0mm|HoleType=Round|Shape=RoundedRectangle|*
%AMROUNDEDRECTD16*
21,1,1.0000,0.5000,0,0,90.0*
21,1,0.5000,1.0000,0,0,90.0*
1,1,0.5000,0.2500,0.2500*
1,1,0.5000,0.2500,-0.2500*
1,1,0.5000,-0.2500,-0.2500*
1,1,0.5000,-0.2500,0.2500*
%
%ADD16ROUNDEDRECTD16*%
%ADD17R,1.1000X2.0500*%
%ADD18R,2.1500X2.2000*%
G04:AMPARAMS|DCode=19|XSize=1mm|YSize=1mm|CornerRadius=0.25mm|HoleSize=0mm|Usage=FLASHONLY|Rotation=0.000|XOffset=0mm|YOffset=0mm|HoleType=Round|Shape=RoundedRectangle|*
%AMROUNDEDRECTD19*
21,1,1.0000,0.5000,0,0,0.0*
21,1,0.5000,1.0000,0,0,0.0*
1,1,0.5000,0.2500,-0.2500*
1,1,0.5000,-0.2500,-0.2500*
1,1,0.5000,-0.2500,0.2500*
1,1,0.5000,0.2500,0.2500*
%
%ADD19ROUNDEDRECTD19*%
%ADD20C,2.5500*%
%ADD21C,2.6250*%
%ADD22R,2.5500X2.5500*%
%ADD23R,2.6250X2.6250*%
%ADD24R,2.5500X2.5500*%
%ADD25C,1.5000*%
%ADD26C,1.5080*%
%ADD27C,4.0000*%
%ADD28C,1.2700*%
D14*
X710000Y868500D02*
D03*
Y901500D02*
D03*
Y801500D02*
D03*
Y768500D02*
D03*
D15*
X745000Y741700D02*
D03*
Y758300D02*
D03*
X715000Y958300D02*
D03*
X755000Y908300D02*
D03*
X710000Y713300D02*
D03*
Y696700D02*
D03*
X715000Y941700D02*
D03*
X755000Y891700D02*
D03*
D16*
X660000Y725000D02*
D03*
D17*
X780000Y945000D02*
D03*
X778500Y705000D02*
D03*
X811500D02*
D03*
X813000Y945000D02*
D03*
D18*
X760000Y808000D02*
D03*
Y852000D02*
D03*
D19*
X835000Y760000D02*
D03*
D20*
X860000Y1015000D02*
D03*
Y695000D02*
D03*
X690000Y995000D02*
D03*
X740000Y665000D02*
D03*
X810000Y805000D02*
D03*
Y855000D02*
D03*
D21*
X665000Y880200D02*
D03*
Y780200D02*
D03*
D22*
X860000Y965000D02*
D03*
Y645000D02*
D03*
D23*
X665000Y919800D02*
D03*
Y819800D02*
D03*
D24*
X690000Y665000D02*
D03*
X740000Y995000D02*
D03*
D25*
X910000Y885000D02*
D03*
Y775000D02*
D03*
D26*
Y1045000D02*
D03*
Y935000D02*
D03*
X770000Y1045000D02*
D03*
X660000D02*
D03*
X910000Y615000D02*
D03*
Y725000D02*
D03*
X660000Y615000D02*
D03*
X770000D02*
D03*
D27*
X815000Y1035000D02*
D03*
Y625000D02*
D03*
X615000Y1035000D02*
D03*
Y625000D02*
D03*
D28*
X760000Y780000D02*
D03*
X745000Y950000D02*
D03*
X710000Y820000D02*
D03*
X740000Y710000D02*
D03*
X731936Y918350D02*
D03*
M02*
