G04*
G04 #@! TF.GenerationSoftware,Altium Limited,Altium Designer,25.4.2 (15)*
G04*
G04 Layer_Color=65535*
%FSLAX44Y44*%
%MOMM*%
G71*
G04*
G04 #@! TF.SameCoordinates,755EBFA8-2C22-4CE6-A8D5-5F4806BE5B60*
G04*
G04*
G04 #@! TF.FilePolarity,Positive*
G04*
G01*
G75*
%ADD10C,0.2000*%
%ADD11C,0.1000*%
%ADD12C,0.1270*%
%ADD13C,0.2540*%
D10*
X711000Y858000D02*
G03*
X709000Y858000I-1000J0D01*
G01*
D02*
G03*
X711000Y858000I1000J0D01*
G01*
X666000Y946800D02*
G03*
X666000Y946800I-1000J0D01*
G01*
Y846800D02*
G03*
X666000Y846800I-1000J0D01*
G01*
X822000Y704000D02*
G03*
X822000Y706000I0J1000D01*
G01*
D02*
G03*
X822000Y704000I0J-1000D01*
G01*
X823500Y944000D02*
G03*
X823500Y946000I0J1000D01*
G01*
D02*
G03*
X823500Y944000I0J-1000D01*
G01*
X709000Y758000D02*
G03*
X711000Y758000I1000J0D01*
G01*
D02*
G03*
X709000Y758000I-1000J0D01*
G01*
X698500Y885000D02*
X721500D01*
X741880Y837500D02*
X778120D01*
Y803250D02*
Y856750D01*
X741880Y803250D02*
Y856750D01*
X795000Y693500D02*
Y716500D01*
X796500Y933500D02*
Y956500D01*
X698500Y785000D02*
X721500D01*
D11*
X801500Y780500D02*
X896490D01*
X801500D02*
Y790000D01*
Y870000D02*
Y879500D01*
X896490D01*
X921490Y780500D02*
X940990D01*
Y879500D01*
X921490D02*
X940990D01*
D12*
X922500Y940500D02*
X939000D01*
X922500Y923500D02*
Y940500D01*
Y1039500D02*
X939000D01*
X922500D02*
Y1056500D01*
X837500Y1010000D02*
Y1020000D01*
X832500Y965000D02*
X842500D01*
X837500Y960000D02*
Y970000D01*
X939000Y1032700D02*
X999000D01*
X939000D02*
Y1039500D01*
X897500Y1056500D02*
X922500D01*
X939000Y947300D02*
X999000D01*
X939000Y940500D02*
Y947300D01*
X897500Y923500D02*
X922500D01*
X897500D02*
Y1056500D01*
X999000Y947300D02*
Y1032700D01*
X531000Y939300D02*
X625000D01*
Y860700D02*
Y939300D01*
X531000Y860700D02*
X625000D01*
X531000D02*
Y939300D01*
Y839300D02*
X625000D01*
Y760700D02*
Y839300D01*
X531000Y760700D02*
X625000D01*
X531000D02*
Y839300D01*
X672300Y1134000D02*
X757700D01*
X648500Y1032500D02*
X781500D01*
Y1057500D01*
X757700Y1074000D02*
X764500D01*
X757700D02*
Y1134000D01*
X648500Y1032500D02*
Y1057500D01*
X665500Y1074000D02*
X672300D01*
Y1134000D01*
X735000Y972500D02*
X745000D01*
X740000Y967500D02*
Y977500D01*
X685000Y972500D02*
X695000D01*
X648500Y1057500D02*
X665500D01*
Y1074000D01*
X764500Y1057500D02*
X781500D01*
X764500D02*
Y1074000D01*
X999000Y627300D02*
Y712700D01*
X897500Y603500D02*
Y736500D01*
Y603500D02*
X922500D01*
X939000Y620500D02*
Y627300D01*
X999000D01*
X897500Y736500D02*
X922500D01*
X939000Y712700D02*
Y719500D01*
Y712700D02*
X999000D01*
X837500Y640000D02*
Y650000D01*
X832500Y645000D02*
X842500D01*
X837500Y690000D02*
Y700000D01*
X922500Y719500D02*
Y736500D01*
Y719500D02*
X939000D01*
X922500Y603500D02*
Y620500D01*
X939000D01*
X672300Y526000D02*
X757700D01*
X648500Y627500D02*
X781500D01*
X648500Y602500D02*
Y627500D01*
X665500Y586000D02*
X672300D01*
Y526000D02*
Y586000D01*
X781500Y602500D02*
Y627500D01*
X757700Y586000D02*
X764500D01*
X757700Y526000D02*
Y586000D01*
X685000Y687500D02*
X695000D01*
X690000Y682500D02*
Y692500D01*
X735000Y687500D02*
X745000D01*
X764500Y602500D02*
X781500D01*
X764500Y586000D02*
Y602500D01*
X648500D02*
X665500D01*
Y586000D02*
Y602500D01*
D13*
X830000Y837617D02*
X824922D01*
X827461D01*
Y824922D01*
X824922Y822383D01*
X822383D01*
X819843Y824922D01*
X835078Y822383D02*
X840157D01*
X837618D01*
Y837617D01*
X835078Y835078D01*
X649843Y710078D02*
X647304Y712617D01*
X642226D01*
X639687Y710078D01*
Y699922D01*
X642226Y697383D01*
X647304D01*
X649843Y699922D01*
Y705000D01*
X644765D01*
X654922Y697383D02*
Y712617D01*
X665078Y697383D01*
Y712617D01*
X670157D02*
Y697383D01*
X677774D01*
X680313Y699922D01*
Y710078D01*
X677774Y712617D01*
X670157D01*
X857461Y767617D02*
X852383Y765078D01*
X847304Y760000D01*
Y754922D01*
X849843Y752383D01*
X854922D01*
X857461Y754922D01*
Y757461D01*
X854922Y760000D01*
X847304D01*
X872696Y765078D02*
X870157Y767617D01*
X865078D01*
X862539Y765078D01*
Y762539D01*
X865078Y760000D01*
X870157D01*
X872696Y757461D01*
Y754922D01*
X870157Y752383D01*
X865078D01*
X862539Y754922D01*
X642461Y957617D02*
X637383D01*
X639922D01*
Y944922D01*
X637383Y942383D01*
X634843D01*
X632304Y944922D01*
X647539Y957617D02*
X657696D01*
Y955078D01*
X647539Y944922D01*
Y942383D01*
X617461Y747617D02*
X612383D01*
X614922D01*
Y734922D01*
X612383Y732383D01*
X609843D01*
X607304Y734922D01*
X632696Y747617D02*
X627617Y745078D01*
X622539Y740000D01*
Y734922D01*
X625078Y732383D01*
X630157D01*
X632696Y734922D01*
Y737461D01*
X630157Y740000D01*
X622539D01*
X807461Y685078D02*
X804922Y687617D01*
X799843D01*
X797304Y685078D01*
Y674922D01*
X799843Y672383D01*
X804922D01*
X807461Y674922D01*
X812539Y685078D02*
X815078Y687617D01*
X820157D01*
X822696Y685078D01*
Y682539D01*
X820157Y680000D01*
X822696Y677461D01*
Y674922D01*
X820157Y672383D01*
X815078D01*
X812539Y674922D01*
Y677461D01*
X815078Y680000D01*
X812539Y682539D01*
Y685078D01*
X815078Y680000D02*
X820157D01*
X759922Y747461D02*
X757383Y744922D01*
Y739843D01*
X759922Y737304D01*
X770078D01*
X772617Y739843D01*
Y744922D01*
X770078Y747461D01*
X759922Y752539D02*
X757383Y755078D01*
Y760157D01*
X759922Y762696D01*
X762461D01*
X765000Y760157D01*
Y757617D01*
Y760157D01*
X767539Y762696D01*
X770078D01*
X772617Y760157D01*
Y755078D01*
X770078Y752539D01*
X780000Y900078D02*
X777461Y902617D01*
X772383D01*
X769843Y900078D01*
Y889922D01*
X772383Y887383D01*
X777461D01*
X780000Y889922D01*
X785078Y887383D02*
X790157D01*
X787618D01*
Y902617D01*
X785078Y900078D01*
X652461Y1012617D02*
X647383D01*
X649922D01*
Y999922D01*
X647383Y997383D01*
X644843D01*
X642304Y999922D01*
X667696Y1012617D02*
X657539D01*
Y1005000D01*
X662617Y1007539D01*
X665157D01*
X667696Y1005000D01*
Y999922D01*
X665157Y997383D01*
X660078D01*
X657539Y999922D01*
X867461Y937617D02*
X862383D01*
X864922D01*
Y924922D01*
X862383Y922383D01*
X859843D01*
X857304Y924922D01*
X880157Y922383D02*
Y937617D01*
X872539Y930000D01*
X882696D01*
X852461Y737617D02*
X847383D01*
X849922D01*
Y724922D01*
X847383Y722383D01*
X844843D01*
X842304Y724922D01*
X857539Y735078D02*
X860078Y737617D01*
X865157D01*
X867696Y735078D01*
Y732539D01*
X865157Y730000D01*
X862617D01*
X865157D01*
X867696Y727461D01*
Y724922D01*
X865157Y722383D01*
X860078D01*
X857539Y724922D01*
X647461Y662617D02*
X642383D01*
X644922D01*
Y649922D01*
X642383Y647383D01*
X639843D01*
X637304Y649922D01*
X662696Y647383D02*
X652539D01*
X662696Y657539D01*
Y660078D01*
X660157Y662617D01*
X655078D01*
X652539Y660078D01*
X784843Y837617D02*
Y822383D01*
X792461D01*
X795000Y824922D01*
Y835078D01*
X792461Y837617D01*
X784843D01*
X800078Y822383D02*
X805157D01*
X802618D01*
Y837617D01*
X800078Y835078D01*
X707461Y735078D02*
X704922Y737617D01*
X699843D01*
X697304Y735078D01*
Y724922D01*
X699843Y722383D01*
X704922D01*
X707461Y724922D01*
X712539Y737617D02*
X722696D01*
Y735078D01*
X712539Y724922D01*
Y722383D01*
X802461Y985078D02*
X799922Y987617D01*
X794843D01*
X792304Y985078D01*
Y974922D01*
X794843Y972383D01*
X799922D01*
X802461Y974922D01*
X817696Y987617D02*
X812617Y985078D01*
X807539Y980000D01*
Y974922D01*
X810078Y972383D01*
X815157D01*
X817696Y974922D01*
Y977461D01*
X815157Y980000D01*
X807539D01*
X700078Y952539D02*
X702618Y955078D01*
Y960157D01*
X700078Y962696D01*
X689922D01*
X687383Y960157D01*
Y955078D01*
X689922Y952539D01*
X702618Y937304D02*
Y947461D01*
X695000D01*
X697539Y942382D01*
Y939843D01*
X695000Y937304D01*
X689922D01*
X687383Y939843D01*
Y944922D01*
X689922Y947461D01*
X677461Y760078D02*
X674922Y762617D01*
X669843D01*
X667304Y760078D01*
Y749922D01*
X669843Y747383D01*
X674922D01*
X677461Y749922D01*
X690157Y747383D02*
Y762617D01*
X682539Y755000D01*
X692696D01*
X687461Y855078D02*
X684922Y857617D01*
X679843D01*
X677304Y855078D01*
Y844922D01*
X679843Y842383D01*
X684922D01*
X687461Y844922D01*
X702696Y842383D02*
X692539D01*
X702696Y852539D01*
Y855078D01*
X700157Y857617D01*
X695078D01*
X692539Y855078D01*
M02*
