G04*
G04 #@! TF.GenerationSoftware,Altium Limited,Altium Designer,25.4.2 (15)*
G04*
G04 Layer_Physical_Order=1*
G04 Layer_Color=255*
%FSLAX44Y44*%
%MOMM*%
G71*
G04*
G04 #@! TF.SameCoordinates,755EBFA8-2C22-4CE6-A8D5-5F4806BE5B60*
G04*
G04*
G04 #@! TF.FilePolarity,Positive*
G04*
G01*
G75*
%ADD14R,2.0500X1.1000*%
%ADD15R,1.4700X0.9700*%
G04:AMPARAMS|DCode=16|XSize=1mm|YSize=1mm|CornerRadius=0.25mm|HoleSize=0mm|Usage=FLASHONLY|Rotation=90.000|XOffset=0mm|YOffset=0mm|HoleType=Round|Shape=RoundedRectangle|*
%AMROUNDEDRECTD16*
21,1,1.0000,0.5000,0,0,90.0*
21,1,0.5000,1.0000,0,0,90.0*
1,1,0.5000,0.2500,0.2500*
1,1,0.5000,0.2500,-0.2500*
1,1,0.5000,-0.2500,-0.2500*
1,1,0.5000,-0.2500,0.2500*
%
%ADD16ROUNDEDRECTD16*%
%ADD17R,1.1000X2.0500*%
%ADD18R,2.1500X2.2000*%
G04:AMPARAMS|DCode=19|XSize=1mm|YSize=1mm|CornerRadius=0.25mm|HoleSize=0mm|Usage=FLASHONLY|Rotation=0.000|XOffset=0mm|YOffset=0mm|HoleType=Round|Shape=RoundedRectangle|*
%AMROUNDEDRECTD19*
21,1,1.0000,0.5000,0,0,0.0*
21,1,0.5000,1.0000,0,0,0.0*
1,1,0.5000,0.2500,-0.2500*
1,1,0.5000,-0.2500,-0.2500*
1,1,0.5000,-0.2500,0.2500*
1,1,0.5000,0.2500,0.2500*
%
%ADD19ROUNDEDRECTD19*%
%ADD20C,2.5500*%
%ADD21C,2.6250*%
%ADD22R,2.5500X2.5500*%
%ADD23R,2.6250X2.6250*%
%ADD24R,2.5500X2.5500*%
%ADD25C,1.5000*%
%ADD26C,1.5080*%
%ADD27C,4.0000*%
%ADD28C,1.2700*%
%ADD29C,1.0000*%
G36*
X898407Y1050000D02*
X898315Y1049840D01*
X897460Y1046651D01*
Y1043349D01*
X898315Y1040160D01*
X899966Y1037300D01*
X902300Y1034966D01*
X905160Y1033315D01*
X908349Y1032460D01*
X911651D01*
X915000Y1028181D01*
Y951819D01*
X911651Y947540D01*
X908349D01*
X905160Y946685D01*
X902300Y945034D01*
X899966Y942700D01*
X898315Y939840D01*
X897460Y936651D01*
Y933349D01*
X898315Y930160D01*
X899966Y927300D01*
X902300Y924966D01*
X905160Y923315D01*
X908349Y922460D01*
X911651D01*
X915000Y918181D01*
Y901778D01*
X911646Y897500D01*
X908354D01*
X905175Y896648D01*
X902325Y895003D01*
X899997Y892675D01*
X898352Y889825D01*
X897500Y886646D01*
Y883354D01*
X898352Y880175D01*
X899997Y877325D01*
X902325Y874997D01*
X905175Y873352D01*
X908354Y872500D01*
X911646D01*
X915000Y868222D01*
Y791778D01*
X911646Y787500D01*
X908354D01*
X905175Y786648D01*
X902325Y785003D01*
X899997Y782675D01*
X898352Y779825D01*
X897500Y776646D01*
Y773354D01*
X898352Y770175D01*
X899997Y767325D01*
X902325Y764998D01*
X905175Y763352D01*
X908354Y762500D01*
X911646D01*
X915000Y758223D01*
Y741819D01*
X911651Y737540D01*
X908349D01*
X905160Y736685D01*
X902300Y735034D01*
X899966Y732700D01*
X898315Y729840D01*
X897460Y726651D01*
Y723349D01*
X898315Y720160D01*
X899966Y717300D01*
X902300Y714966D01*
X905160Y713315D01*
X908349Y712460D01*
X911651D01*
X915000Y708181D01*
Y631819D01*
X911651Y627540D01*
X908349D01*
X905160Y626685D01*
X902300Y625034D01*
X899966Y622700D01*
X898315Y619840D01*
X897460Y616651D01*
Y613349D01*
X898315Y610160D01*
X898407Y610000D01*
X895520Y605000D01*
X837426D01*
X836057Y606850D01*
X835044Y610000D01*
X837155Y613158D01*
X839039Y617708D01*
X840000Y622538D01*
Y627462D01*
X839039Y632292D01*
X837155Y636842D01*
X834419Y640937D01*
X830937Y644419D01*
X826842Y647155D01*
X822292Y649039D01*
X817462Y650000D01*
X812538D01*
X807708Y649039D01*
X803158Y647155D01*
X799063Y644419D01*
X795581Y640937D01*
X792845Y636842D01*
X790961Y632292D01*
X790000Y627462D01*
Y622538D01*
X790961Y617708D01*
X792845Y613158D01*
X794956Y610000D01*
X793943Y606850D01*
X792574Y605000D01*
X784480D01*
X781593Y610000D01*
X781685Y610160D01*
X782540Y613349D01*
Y616651D01*
X781685Y619840D01*
X780034Y622700D01*
X777700Y625034D01*
X774840Y626685D01*
X771651Y627540D01*
X768349D01*
X765160Y626685D01*
X762300Y625034D01*
X759966Y622700D01*
X758315Y619840D01*
X757460Y616651D01*
Y613349D01*
X758315Y610160D01*
X758407Y610000D01*
X755520Y605000D01*
X674480D01*
X671593Y610000D01*
X671685Y610160D01*
X672540Y613349D01*
Y616651D01*
X671685Y619840D01*
X670034Y622700D01*
X667700Y625034D01*
X664840Y626685D01*
X661651Y627540D01*
X658349D01*
X655160Y626685D01*
X652300Y625034D01*
X649966Y622700D01*
X648315Y619840D01*
X647460Y616651D01*
Y613349D01*
X648315Y610160D01*
X648407Y610000D01*
X645520Y605000D01*
X637426D01*
X636057Y606850D01*
X635045Y610000D01*
X637155Y613158D01*
X639039Y617708D01*
X640000Y622538D01*
Y627462D01*
X639039Y632292D01*
X637155Y636842D01*
X634419Y640937D01*
X630937Y644419D01*
X626842Y647155D01*
X622292Y649039D01*
X617462Y650000D01*
X612538D01*
X607708Y649039D01*
X603158Y647155D01*
X599063Y644419D01*
X595581Y640937D01*
X595000Y640067D01*
X590000Y641583D01*
Y1018417D01*
X595000Y1019933D01*
X595581Y1019063D01*
X599063Y1015581D01*
X603158Y1012845D01*
X607708Y1010961D01*
X612538Y1010000D01*
X617462D01*
X622292Y1010961D01*
X626842Y1012845D01*
X630937Y1015581D01*
X634419Y1019063D01*
X637155Y1023158D01*
X639039Y1027708D01*
X640000Y1032538D01*
Y1037462D01*
X639039Y1042292D01*
X637155Y1046842D01*
X635045Y1050000D01*
X636057Y1053150D01*
X637426Y1055000D01*
X645520D01*
X648407Y1050000D01*
X648315Y1049840D01*
X647460Y1046651D01*
Y1043349D01*
X648315Y1040160D01*
X649966Y1037300D01*
X652300Y1034966D01*
X655160Y1033315D01*
X658349Y1032460D01*
X661651D01*
X664840Y1033315D01*
X667700Y1034966D01*
X670034Y1037300D01*
X671685Y1040160D01*
X672540Y1043349D01*
Y1046651D01*
X671685Y1049840D01*
X671593Y1050000D01*
X674480Y1055000D01*
X755520D01*
X758407Y1050000D01*
X758315Y1049840D01*
X757460Y1046651D01*
Y1043349D01*
X758315Y1040160D01*
X759966Y1037300D01*
X762300Y1034966D01*
X765160Y1033315D01*
X768349Y1032460D01*
X771651D01*
X774840Y1033315D01*
X777700Y1034966D01*
X780034Y1037300D01*
X781685Y1040160D01*
X782540Y1043349D01*
Y1046651D01*
X781685Y1049840D01*
X781593Y1050000D01*
X784480Y1055000D01*
X792574D01*
X793943Y1053150D01*
X794956Y1050000D01*
X792845Y1046842D01*
X790961Y1042292D01*
X790000Y1037462D01*
Y1032538D01*
X790961Y1027708D01*
X792845Y1023158D01*
X795581Y1019063D01*
X799063Y1015581D01*
X803158Y1012845D01*
X807708Y1010961D01*
X812538Y1010000D01*
X817462D01*
X822292Y1010961D01*
X826842Y1012845D01*
X830937Y1015581D01*
X834419Y1019063D01*
X837155Y1023158D01*
X839039Y1027708D01*
X840000Y1032538D01*
Y1037462D01*
X839039Y1042292D01*
X837155Y1046842D01*
X835044Y1050000D01*
X836057Y1053150D01*
X837426Y1055000D01*
X895520D01*
X898407Y1050000D01*
D02*
G37*
%LPC*%
G36*
X861748Y1032750D02*
X858252D01*
X854822Y1032068D01*
X851592Y1030730D01*
X848685Y1028787D01*
X846213Y1026315D01*
X844270Y1023408D01*
X842932Y1020178D01*
X842250Y1016748D01*
Y1013252D01*
X842932Y1009822D01*
X844270Y1006592D01*
X846213Y1003685D01*
X848685Y1001213D01*
X851592Y999270D01*
X854822Y997932D01*
X858252Y997250D01*
X861748D01*
X865178Y997932D01*
X868408Y999270D01*
X871315Y1001213D01*
X873787Y1003685D01*
X875730Y1006592D01*
X877068Y1009822D01*
X877750Y1013252D01*
Y1016748D01*
X877068Y1020178D01*
X875730Y1023408D01*
X873787Y1026315D01*
X871315Y1028787D01*
X868408Y1030730D01*
X865178Y1032068D01*
X861748Y1032750D01*
D02*
G37*
G36*
X691748Y1012750D02*
X688252D01*
X684822Y1012068D01*
X681592Y1010730D01*
X678685Y1008787D01*
X676213Y1006315D01*
X674270Y1003408D01*
X672932Y1000178D01*
X672250Y996748D01*
Y993252D01*
X672932Y989822D01*
X674270Y986592D01*
X676213Y983685D01*
X678685Y981213D01*
X681592Y979270D01*
X684822Y977932D01*
X688252Y977250D01*
X691748D01*
X695178Y977932D01*
X698408Y979270D01*
X701315Y981213D01*
X703787Y983685D01*
X705730Y986592D01*
X707068Y989822D01*
X707750Y993252D01*
Y996748D01*
X707068Y1000178D01*
X705730Y1003408D01*
X703787Y1006315D01*
X701315Y1008787D01*
X698408Y1010730D01*
X695178Y1012068D01*
X691748Y1012750D01*
D02*
G37*
G36*
X736700Y968386D02*
X715000D01*
X713205Y968150D01*
X702650D01*
Y948450D01*
X713205D01*
X715000Y948214D01*
X732522D01*
X734170Y946566D01*
X734424Y945619D01*
X735918Y943031D01*
X738031Y940918D01*
X740619Y939424D01*
X742564Y938902D01*
X743599Y937868D01*
X745687Y936265D01*
X748120Y935257D01*
X750731Y934914D01*
X769500D01*
Y929750D01*
X790500D01*
Y960250D01*
X769500D01*
Y955086D01*
X755169D01*
X754082Y956969D01*
X751969Y959082D01*
X749381Y960576D01*
X748434Y960830D01*
X743832Y965432D01*
X741743Y967035D01*
X739311Y968043D01*
X736700Y968386D01*
D02*
G37*
G36*
X733431Y929700D02*
X730442D01*
X727556Y928926D01*
X725812Y927920D01*
X717833D01*
X715223Y927576D01*
X712790Y926568D01*
X710701Y924966D01*
X702868Y917132D01*
X701265Y915043D01*
X700257Y912610D01*
X700177Y912000D01*
X694750D01*
Y891000D01*
X725250D01*
Y903769D01*
X730250Y907051D01*
X730442Y907000D01*
X733431D01*
X736219Y907747D01*
X739089D01*
X742650Y904186D01*
Y898450D01*
X751005D01*
X752800Y898214D01*
X755000D01*
X756795Y898450D01*
X767350D01*
Y918150D01*
X757214D01*
X750399Y924966D01*
X748310Y926568D01*
X745877Y927576D01*
X743267Y927920D01*
X738061D01*
X736318Y928926D01*
X733431Y929700D01*
D02*
G37*
G36*
X666785Y898325D02*
X663215D01*
X659713Y897628D01*
X656415Y896262D01*
X653446Y894279D01*
X650921Y891754D01*
X648938Y888785D01*
X647571Y885487D01*
X646875Y881985D01*
Y878415D01*
X647571Y874913D01*
X648938Y871615D01*
X650921Y868646D01*
X653446Y866121D01*
X656415Y864138D01*
X659713Y862772D01*
X663215Y862075D01*
X666785D01*
X670287Y862772D01*
X673585Y864138D01*
X676554Y866121D01*
X679079Y868646D01*
X681062Y871615D01*
X682429Y874913D01*
X683125Y878415D01*
Y881985D01*
X682429Y885487D01*
X681062Y888785D01*
X679079Y891754D01*
X676554Y894279D01*
X673585Y896262D01*
X670287Y897628D01*
X666785Y898325D01*
D02*
G37*
G36*
X711494Y831350D02*
X708506D01*
X705619Y830576D01*
X703031Y829082D01*
X700918Y826969D01*
X699424Y824381D01*
X698650Y821494D01*
Y818506D01*
X699053Y817000D01*
X696930Y813032D01*
X695935Y812000D01*
X694750D01*
Y791000D01*
X725250D01*
Y812000D01*
X724065D01*
X723070Y813032D01*
X720947Y817000D01*
X721350Y818506D01*
Y821494D01*
X720576Y824381D01*
X719082Y826969D01*
X716969Y829082D01*
X714381Y830576D01*
X711494Y831350D01*
D02*
G37*
G36*
X811748Y822750D02*
X808252D01*
X804822Y822068D01*
X801592Y820730D01*
X798685Y818787D01*
X796213Y816315D01*
X794270Y813408D01*
X792932Y810178D01*
X792250Y806748D01*
Y803252D01*
X792932Y799822D01*
X794270Y796592D01*
X796213Y793685D01*
X798685Y791213D01*
X801592Y789270D01*
X804822Y787932D01*
X808252Y787250D01*
X811748D01*
X815178Y787932D01*
X818408Y789270D01*
X821315Y791213D01*
X823787Y793685D01*
X825730Y796592D01*
X827068Y799822D01*
X827750Y803252D01*
Y806748D01*
X827068Y810178D01*
X825730Y813408D01*
X823787Y816315D01*
X821315Y818787D01*
X818408Y820730D01*
X815178Y822068D01*
X811748Y822750D01*
D02*
G37*
G36*
X775750Y824000D02*
X744250D01*
Y792000D01*
X749914D01*
Y785230D01*
X749424Y784381D01*
X748650Y781494D01*
Y778506D01*
X749397Y775717D01*
Y774761D01*
X742786Y768150D01*
X732650D01*
Y748450D01*
X743205D01*
X745000Y748214D01*
X747200D01*
X748995Y748450D01*
X757350D01*
Y754186D01*
X766616Y763451D01*
X768218Y765540D01*
X769226Y767973D01*
X769570Y770583D01*
Y773875D01*
X770576Y775619D01*
X771350Y778506D01*
Y781494D01*
X770576Y784381D01*
X770086Y785230D01*
Y792000D01*
X775750D01*
Y824000D01*
D02*
G37*
G36*
X666785Y798325D02*
X663215D01*
X659713Y797628D01*
X656415Y796262D01*
X653446Y794279D01*
X650921Y791754D01*
X648938Y788785D01*
X647571Y785487D01*
X646875Y781985D01*
Y778415D01*
X647571Y774913D01*
X648938Y771615D01*
X650921Y768646D01*
X653446Y766121D01*
X654087Y765693D01*
Y756253D01*
X652868Y755033D01*
X651265Y752944D01*
X650257Y750512D01*
X649914Y747901D01*
Y725000D01*
X649935Y724836D01*
Y722500D01*
X650193Y720542D01*
X650949Y718718D01*
X652151Y717151D01*
X653718Y715949D01*
X655542Y715193D01*
X657500Y714935D01*
X659836D01*
X660000Y714914D01*
X660164Y714935D01*
X662500D01*
X664458Y715193D01*
X666282Y715949D01*
X667849Y717151D01*
X669051Y718718D01*
X669807Y720542D01*
X670065Y722500D01*
Y724836D01*
X670086Y725000D01*
Y743724D01*
X671306Y744943D01*
X672908Y747032D01*
X673916Y749464D01*
X674260Y752075D01*
Y764588D01*
X676554Y766121D01*
X679079Y768646D01*
X681062Y771615D01*
X682429Y774913D01*
X683125Y778415D01*
Y781985D01*
X682429Y785487D01*
X681062Y788785D01*
X679079Y791754D01*
X676554Y794279D01*
X673585Y796262D01*
X670287Y797628D01*
X666785Y798325D01*
D02*
G37*
G36*
X735969Y723386D02*
X710000D01*
X708205Y723150D01*
X697650D01*
Y703450D01*
X708205D01*
X710000Y703214D01*
X730812D01*
X730918Y703031D01*
X733031Y700918D01*
X735619Y699424D01*
X737564Y698902D01*
X738598Y697868D01*
X740687Y696265D01*
X743120Y695257D01*
X745731Y694914D01*
X768000D01*
Y689750D01*
X789000D01*
Y720250D01*
X768000D01*
Y715086D01*
X750169D01*
X749082Y716969D01*
X746969Y719082D01*
X744381Y720576D01*
X742126Y721181D01*
X741012Y722035D01*
X738580Y723043D01*
X735969Y723386D01*
D02*
G37*
G36*
X861748Y712750D02*
X858252D01*
X854822Y712068D01*
X851592Y710730D01*
X848685Y708787D01*
X846213Y706315D01*
X844270Y703408D01*
X842932Y700178D01*
X842250Y696748D01*
Y693252D01*
X842932Y689822D01*
X844270Y686592D01*
X846213Y683685D01*
X848685Y681213D01*
X851592Y679270D01*
X854822Y677932D01*
X858252Y677250D01*
X861748D01*
X865178Y677932D01*
X868408Y679270D01*
X871315Y681213D01*
X873787Y683685D01*
X875730Y686592D01*
X877068Y689822D01*
X877750Y693252D01*
Y696748D01*
X877068Y700178D01*
X875730Y703408D01*
X873787Y706315D01*
X871315Y708787D01*
X868408Y710730D01*
X865178Y712068D01*
X861748Y712750D01*
D02*
G37*
G36*
X741748Y682750D02*
X738252D01*
X734822Y682068D01*
X731592Y680730D01*
X728685Y678787D01*
X726213Y676315D01*
X724270Y673408D01*
X722932Y670178D01*
X722250Y666748D01*
Y663252D01*
X722932Y659822D01*
X724270Y656592D01*
X726213Y653685D01*
X728685Y651213D01*
X731592Y649270D01*
X734822Y647932D01*
X738252Y647250D01*
X741748D01*
X745178Y647932D01*
X748408Y649270D01*
X751315Y651213D01*
X753787Y653685D01*
X755730Y656592D01*
X757068Y659822D01*
X757750Y663252D01*
Y666748D01*
X757068Y670178D01*
X755730Y673408D01*
X753787Y676315D01*
X751315Y678787D01*
X748408Y680730D01*
X745178Y682068D01*
X741748Y682750D01*
D02*
G37*
%LPD*%
D14*
X710000Y868500D02*
D03*
Y901500D02*
D03*
Y801500D02*
D03*
Y768500D02*
D03*
D15*
X745000Y741700D02*
D03*
Y758300D02*
D03*
X715000Y958300D02*
D03*
X755000Y908300D02*
D03*
X710000Y713300D02*
D03*
Y696700D02*
D03*
X715000Y941700D02*
D03*
X755000Y891700D02*
D03*
D16*
X660000Y725000D02*
D03*
D17*
X780000Y945000D02*
D03*
X778500Y705000D02*
D03*
X811500D02*
D03*
X813000Y945000D02*
D03*
D18*
X760000Y808000D02*
D03*
Y852000D02*
D03*
D19*
X835000Y760000D02*
D03*
D20*
X860000Y1015000D02*
D03*
Y695000D02*
D03*
X690000Y995000D02*
D03*
X740000Y665000D02*
D03*
X810000Y805000D02*
D03*
Y855000D02*
D03*
D21*
X665000Y880200D02*
D03*
Y780200D02*
D03*
D22*
X860000Y965000D02*
D03*
Y645000D02*
D03*
D23*
X665000Y919800D02*
D03*
Y819800D02*
D03*
D24*
X690000Y665000D02*
D03*
X740000Y995000D02*
D03*
D25*
X910000Y885000D02*
D03*
Y775000D02*
D03*
D26*
Y1045000D02*
D03*
Y935000D02*
D03*
X770000Y1045000D02*
D03*
X660000D02*
D03*
X910000Y615000D02*
D03*
Y725000D02*
D03*
X660000Y615000D02*
D03*
X770000D02*
D03*
D27*
X815000Y1035000D02*
D03*
Y625000D02*
D03*
X615000Y1035000D02*
D03*
Y625000D02*
D03*
D28*
X760000Y780000D02*
D03*
X745000Y950000D02*
D03*
X710000Y820000D02*
D03*
X740000Y710000D02*
D03*
X731936Y918350D02*
D03*
D29*
X743267Y917833D02*
X752800Y908300D01*
X755000D01*
X732453Y917833D02*
X743267D01*
X731936Y918350D02*
X732453Y917833D01*
X736700Y958300D02*
X745000Y950000D01*
X715000Y958300D02*
X736700D01*
X745000Y950000D02*
X745731D01*
X750731Y945000D01*
X780000D01*
X731420Y917833D02*
X731936Y918350D01*
X717833Y917833D02*
X731420D01*
X710000Y910000D02*
X717833Y917833D01*
X710000Y901500D02*
Y910000D01*
X759483Y779483D02*
X760000Y780000D01*
X759483Y770583D02*
Y779483D01*
X747200Y758300D02*
X759483Y770583D01*
X745000Y758300D02*
X747200D01*
X760000Y780000D02*
Y808000D01*
X740000Y710000D02*
X740731D01*
X745731Y705000D01*
X778500D01*
X739269Y710000D02*
X740000D01*
X735969Y713300D02*
X739269Y710000D01*
X710000Y713300D02*
X735969D01*
X664174Y779374D02*
X665000Y780200D01*
X664174Y752075D02*
Y779374D01*
X660000Y747901D02*
X664174Y752075D01*
X660000Y725000D02*
Y747901D01*
X710000Y801500D02*
Y820000D01*
M02*
