M48
;Layer_Color=9474304
;FILE_FORMAT=4:4
METRIC,LZ
;TYPE=PLATED
T01F00S00C0.7112
T02F00S00C1.0000
T03F00S00C1.7000
T04F00S00C1.7500
T05F00S00C2.2000
%
T01
X0074Y0071
X0076Y0078
X0071Y0082
X00731936Y0091835
X00745Y0095
T02
X0091Y00615
Y00725
Y00775
X0077Y00615
X0066
Y01045
X0077
X0091
Y00935
Y00885
T03
X0086Y00645
Y00695
X0074Y00665
X0069
Y00995
X0074
X0086Y01015
Y00965
X0081Y00855
Y00805
T04
X00665Y007802
Y008198
Y008802
Y009198
T05
X00815Y00625
X00615
Y01035
X00815
M30
